%TF.GenerationSoftware,KiCad,Pcbnew,(5.1.9)-1*%
%TF.CreationDate,2021-08-06T11:10:12+02:00*%
%TF.ProjectId,ProbeAttenuationBoard,50726f62-6541-4747-9465-6e756174696f,1*%
%TF.SameCoordinates,Original*%
%TF.FileFunction,Copper,L1,Top*%
%TF.FilePolarity,Positive*%
%FSLAX46Y46*%
G04 Gerber Fmt 4.6, Leading zero omitted, Abs format (unit mm)*
G04 Created by KiCad (PCBNEW (5.1.9)-1) date 2021-08-06 11:10:12*
%MOMM*%
%LPD*%
G01*
G04 APERTURE LIST*
%TA.AperFunction,SMDPad,CuDef*%
%ADD10R,3.000000X3.000000*%
%TD*%
%TA.AperFunction,Conductor*%
%ADD11C,0.500000*%
%TD*%
G04 APERTURE END LIST*
D10*
%TO.P,U2,1*%
%TO.N,Net-(C5-Pad1)*%
X126100000Y-102000000D03*
%TD*%
%TO.P,U1,1*%
%TO.N,Net-(R1-Pad2)*%
X101700000Y-102000000D03*
%TD*%
%TO.P,R6,2*%
%TO.N,Net-(C4-Pad1)*%
%TA.AperFunction,SMDPad,CuDef*%
G36*
G01*
X121900000Y-102549999D02*
X121900000Y-103450001D01*
G75*
G02*
X121650001Y-103700000I-249999J0D01*
G01*
X121124999Y-103700000D01*
G75*
G02*
X120875000Y-103450001I0J249999D01*
G01*
X120875000Y-102549999D01*
G75*
G02*
X121124999Y-102300000I249999J0D01*
G01*
X121650001Y-102300000D01*
G75*
G02*
X121900000Y-102549999I0J-249999D01*
G01*
G37*
%TD.AperFunction*%
%TO.P,R6,1*%
%TO.N,Net-(C5-Pad1)*%
%TA.AperFunction,SMDPad,CuDef*%
G36*
G01*
X123725000Y-102549999D02*
X123725000Y-103450001D01*
G75*
G02*
X123475001Y-103700000I-249999J0D01*
G01*
X122949999Y-103700000D01*
G75*
G02*
X122700000Y-103450001I0J249999D01*
G01*
X122700000Y-102549999D01*
G75*
G02*
X122949999Y-102300000I249999J0D01*
G01*
X123475001Y-102300000D01*
G75*
G02*
X123725000Y-102549999I0J-249999D01*
G01*
G37*
%TD.AperFunction*%
%TD*%
%TO.P,R5,2*%
%TO.N,Net-(C3-Pad1)*%
%TA.AperFunction,SMDPad,CuDef*%
G36*
G01*
X118275000Y-102549999D02*
X118275000Y-103450001D01*
G75*
G02*
X118025001Y-103700000I-249999J0D01*
G01*
X117499999Y-103700000D01*
G75*
G02*
X117250000Y-103450001I0J249999D01*
G01*
X117250000Y-102549999D01*
G75*
G02*
X117499999Y-102300000I249999J0D01*
G01*
X118025001Y-102300000D01*
G75*
G02*
X118275000Y-102549999I0J-249999D01*
G01*
G37*
%TD.AperFunction*%
%TO.P,R5,1*%
%TO.N,Net-(C4-Pad1)*%
%TA.AperFunction,SMDPad,CuDef*%
G36*
G01*
X120100000Y-102549999D02*
X120100000Y-103450001D01*
G75*
G02*
X119850001Y-103700000I-249999J0D01*
G01*
X119324999Y-103700000D01*
G75*
G02*
X119075000Y-103450001I0J249999D01*
G01*
X119075000Y-102549999D01*
G75*
G02*
X119324999Y-102300000I249999J0D01*
G01*
X119850001Y-102300000D01*
G75*
G02*
X120100000Y-102549999I0J-249999D01*
G01*
G37*
%TD.AperFunction*%
%TD*%
%TO.P,R4,2*%
%TO.N,Net-(C2-Pad1)*%
%TA.AperFunction,SMDPad,CuDef*%
G36*
G01*
X114675000Y-102549999D02*
X114675000Y-103450001D01*
G75*
G02*
X114425001Y-103700000I-249999J0D01*
G01*
X113899999Y-103700000D01*
G75*
G02*
X113650000Y-103450001I0J249999D01*
G01*
X113650000Y-102549999D01*
G75*
G02*
X113899999Y-102300000I249999J0D01*
G01*
X114425001Y-102300000D01*
G75*
G02*
X114675000Y-102549999I0J-249999D01*
G01*
G37*
%TD.AperFunction*%
%TO.P,R4,1*%
%TO.N,Net-(C3-Pad1)*%
%TA.AperFunction,SMDPad,CuDef*%
G36*
G01*
X116500000Y-102549999D02*
X116500000Y-103450001D01*
G75*
G02*
X116250001Y-103700000I-249999J0D01*
G01*
X115724999Y-103700000D01*
G75*
G02*
X115475000Y-103450001I0J249999D01*
G01*
X115475000Y-102549999D01*
G75*
G02*
X115724999Y-102300000I249999J0D01*
G01*
X116250001Y-102300000D01*
G75*
G02*
X116500000Y-102549999I0J-249999D01*
G01*
G37*
%TD.AperFunction*%
%TD*%
%TO.P,R3,2*%
%TO.N,Net-(C1-Pad1)*%
%TA.AperFunction,SMDPad,CuDef*%
G36*
G01*
X111050000Y-102549999D02*
X111050000Y-103450001D01*
G75*
G02*
X110800001Y-103700000I-249999J0D01*
G01*
X110274999Y-103700000D01*
G75*
G02*
X110025000Y-103450001I0J249999D01*
G01*
X110025000Y-102549999D01*
G75*
G02*
X110274999Y-102300000I249999J0D01*
G01*
X110800001Y-102300000D01*
G75*
G02*
X111050000Y-102549999I0J-249999D01*
G01*
G37*
%TD.AperFunction*%
%TO.P,R3,1*%
%TO.N,Net-(C2-Pad1)*%
%TA.AperFunction,SMDPad,CuDef*%
G36*
G01*
X112875000Y-102549999D02*
X112875000Y-103450001D01*
G75*
G02*
X112625001Y-103700000I-249999J0D01*
G01*
X112099999Y-103700000D01*
G75*
G02*
X111850000Y-103450001I0J249999D01*
G01*
X111850000Y-102549999D01*
G75*
G02*
X112099999Y-102300000I249999J0D01*
G01*
X112625001Y-102300000D01*
G75*
G02*
X112875000Y-102549999I0J-249999D01*
G01*
G37*
%TD.AperFunction*%
%TD*%
%TO.P,R2,2*%
%TO.N,Net-(C1-Pad2)*%
%TA.AperFunction,SMDPad,CuDef*%
G36*
G01*
X107450000Y-102574999D02*
X107450000Y-103475001D01*
G75*
G02*
X107200001Y-103725000I-249999J0D01*
G01*
X106674999Y-103725000D01*
G75*
G02*
X106425000Y-103475001I0J249999D01*
G01*
X106425000Y-102574999D01*
G75*
G02*
X106674999Y-102325000I249999J0D01*
G01*
X107200001Y-102325000D01*
G75*
G02*
X107450000Y-102574999I0J-249999D01*
G01*
G37*
%TD.AperFunction*%
%TO.P,R2,1*%
%TO.N,Net-(C1-Pad1)*%
%TA.AperFunction,SMDPad,CuDef*%
G36*
G01*
X109275000Y-102574999D02*
X109275000Y-103475001D01*
G75*
G02*
X109025001Y-103725000I-249999J0D01*
G01*
X108499999Y-103725000D01*
G75*
G02*
X108250000Y-103475001I0J249999D01*
G01*
X108250000Y-102574999D01*
G75*
G02*
X108499999Y-102325000I249999J0D01*
G01*
X109025001Y-102325000D01*
G75*
G02*
X109275000Y-102574999I0J-249999D01*
G01*
G37*
%TD.AperFunction*%
%TD*%
%TO.P,R1,2*%
%TO.N,Net-(R1-Pad2)*%
%TA.AperFunction,SMDPad,CuDef*%
G36*
G01*
X104349999Y-102450000D02*
X105250001Y-102450000D01*
G75*
G02*
X105500000Y-102699999I0J-249999D01*
G01*
X105500000Y-103225001D01*
G75*
G02*
X105250001Y-103475000I-249999J0D01*
G01*
X104349999Y-103475000D01*
G75*
G02*
X104100000Y-103225001I0J249999D01*
G01*
X104100000Y-102699999D01*
G75*
G02*
X104349999Y-102450000I249999J0D01*
G01*
G37*
%TD.AperFunction*%
%TO.P,R1,1*%
%TO.N,Net-(C1-Pad2)*%
%TA.AperFunction,SMDPad,CuDef*%
G36*
G01*
X104349999Y-100625000D02*
X105250001Y-100625000D01*
G75*
G02*
X105500000Y-100874999I0J-249999D01*
G01*
X105500000Y-101400001D01*
G75*
G02*
X105250001Y-101650000I-249999J0D01*
G01*
X104349999Y-101650000D01*
G75*
G02*
X104100000Y-101400001I0J249999D01*
G01*
X104100000Y-100874999D01*
G75*
G02*
X104349999Y-100625000I249999J0D01*
G01*
G37*
%TD.AperFunction*%
%TD*%
%TO.P,C5,2*%
%TO.N,Net-(C4-Pad1)*%
%TA.AperFunction,SMDPad,CuDef*%
G36*
G01*
X121850000Y-100550000D02*
X121850000Y-101500000D01*
G75*
G02*
X121600000Y-101750000I-250000J0D01*
G01*
X121100000Y-101750000D01*
G75*
G02*
X120850000Y-101500000I0J250000D01*
G01*
X120850000Y-100550000D01*
G75*
G02*
X121100000Y-100300000I250000J0D01*
G01*
X121600000Y-100300000D01*
G75*
G02*
X121850000Y-100550000I0J-250000D01*
G01*
G37*
%TD.AperFunction*%
%TO.P,C5,1*%
%TO.N,Net-(C5-Pad1)*%
%TA.AperFunction,SMDPad,CuDef*%
G36*
G01*
X123750000Y-100550000D02*
X123750000Y-101500000D01*
G75*
G02*
X123500000Y-101750000I-250000J0D01*
G01*
X123000000Y-101750000D01*
G75*
G02*
X122750000Y-101500000I0J250000D01*
G01*
X122750000Y-100550000D01*
G75*
G02*
X123000000Y-100300000I250000J0D01*
G01*
X123500000Y-100300000D01*
G75*
G02*
X123750000Y-100550000I0J-250000D01*
G01*
G37*
%TD.AperFunction*%
%TD*%
%TO.P,C4,2*%
%TO.N,Net-(C3-Pad1)*%
%TA.AperFunction,SMDPad,CuDef*%
G36*
G01*
X118225000Y-100550000D02*
X118225000Y-101500000D01*
G75*
G02*
X117975000Y-101750000I-250000J0D01*
G01*
X117475000Y-101750000D01*
G75*
G02*
X117225000Y-101500000I0J250000D01*
G01*
X117225000Y-100550000D01*
G75*
G02*
X117475000Y-100300000I250000J0D01*
G01*
X117975000Y-100300000D01*
G75*
G02*
X118225000Y-100550000I0J-250000D01*
G01*
G37*
%TD.AperFunction*%
%TO.P,C4,1*%
%TO.N,Net-(C4-Pad1)*%
%TA.AperFunction,SMDPad,CuDef*%
G36*
G01*
X120125000Y-100550000D02*
X120125000Y-101500000D01*
G75*
G02*
X119875000Y-101750000I-250000J0D01*
G01*
X119375000Y-101750000D01*
G75*
G02*
X119125000Y-101500000I0J250000D01*
G01*
X119125000Y-100550000D01*
G75*
G02*
X119375000Y-100300000I250000J0D01*
G01*
X119875000Y-100300000D01*
G75*
G02*
X120125000Y-100550000I0J-250000D01*
G01*
G37*
%TD.AperFunction*%
%TD*%
%TO.P,C3,2*%
%TO.N,Net-(C2-Pad1)*%
%TA.AperFunction,SMDPad,CuDef*%
G36*
G01*
X114625000Y-100550000D02*
X114625000Y-101500000D01*
G75*
G02*
X114375000Y-101750000I-250000J0D01*
G01*
X113875000Y-101750000D01*
G75*
G02*
X113625000Y-101500000I0J250000D01*
G01*
X113625000Y-100550000D01*
G75*
G02*
X113875000Y-100300000I250000J0D01*
G01*
X114375000Y-100300000D01*
G75*
G02*
X114625000Y-100550000I0J-250000D01*
G01*
G37*
%TD.AperFunction*%
%TO.P,C3,1*%
%TO.N,Net-(C3-Pad1)*%
%TA.AperFunction,SMDPad,CuDef*%
G36*
G01*
X116525000Y-100550000D02*
X116525000Y-101500000D01*
G75*
G02*
X116275000Y-101750000I-250000J0D01*
G01*
X115775000Y-101750000D01*
G75*
G02*
X115525000Y-101500000I0J250000D01*
G01*
X115525000Y-100550000D01*
G75*
G02*
X115775000Y-100300000I250000J0D01*
G01*
X116275000Y-100300000D01*
G75*
G02*
X116525000Y-100550000I0J-250000D01*
G01*
G37*
%TD.AperFunction*%
%TD*%
%TO.P,C2,2*%
%TO.N,Net-(C1-Pad1)*%
%TA.AperFunction,SMDPad,CuDef*%
G36*
G01*
X111000000Y-100550000D02*
X111000000Y-101500000D01*
G75*
G02*
X110750000Y-101750000I-250000J0D01*
G01*
X110250000Y-101750000D01*
G75*
G02*
X110000000Y-101500000I0J250000D01*
G01*
X110000000Y-100550000D01*
G75*
G02*
X110250000Y-100300000I250000J0D01*
G01*
X110750000Y-100300000D01*
G75*
G02*
X111000000Y-100550000I0J-250000D01*
G01*
G37*
%TD.AperFunction*%
%TO.P,C2,1*%
%TO.N,Net-(C2-Pad1)*%
%TA.AperFunction,SMDPad,CuDef*%
G36*
G01*
X112900000Y-100550000D02*
X112900000Y-101500000D01*
G75*
G02*
X112650000Y-101750000I-250000J0D01*
G01*
X112150000Y-101750000D01*
G75*
G02*
X111900000Y-101500000I0J250000D01*
G01*
X111900000Y-100550000D01*
G75*
G02*
X112150000Y-100300000I250000J0D01*
G01*
X112650000Y-100300000D01*
G75*
G02*
X112900000Y-100550000I0J-250000D01*
G01*
G37*
%TD.AperFunction*%
%TD*%
%TO.P,C1,2*%
%TO.N,Net-(C1-Pad2)*%
%TA.AperFunction,SMDPad,CuDef*%
G36*
G01*
X107400000Y-100550000D02*
X107400000Y-101500000D01*
G75*
G02*
X107150000Y-101750000I-250000J0D01*
G01*
X106650000Y-101750000D01*
G75*
G02*
X106400000Y-101500000I0J250000D01*
G01*
X106400000Y-100550000D01*
G75*
G02*
X106650000Y-100300000I250000J0D01*
G01*
X107150000Y-100300000D01*
G75*
G02*
X107400000Y-100550000I0J-250000D01*
G01*
G37*
%TD.AperFunction*%
%TO.P,C1,1*%
%TO.N,Net-(C1-Pad1)*%
%TA.AperFunction,SMDPad,CuDef*%
G36*
G01*
X109300000Y-100550000D02*
X109300000Y-101500000D01*
G75*
G02*
X109050000Y-101750000I-250000J0D01*
G01*
X108550000Y-101750000D01*
G75*
G02*
X108300000Y-101500000I0J250000D01*
G01*
X108300000Y-100550000D01*
G75*
G02*
X108550000Y-100300000I250000J0D01*
G01*
X109050000Y-100300000D01*
G75*
G02*
X109300000Y-100550000I0J-250000D01*
G01*
G37*
%TD.AperFunction*%
%TD*%
D11*
%TO.N,Net-(C1-Pad2)*%
X106787500Y-101137500D02*
X106900000Y-101025000D01*
X104800000Y-101137500D02*
X106787500Y-101137500D01*
X106937500Y-101062500D02*
X106900000Y-101025000D01*
X106937500Y-103025000D02*
X106937500Y-101062500D01*
%TO.N,Net-(C1-Pad1)*%
X108800000Y-102987500D02*
X108762500Y-103025000D01*
X108800000Y-101025000D02*
X108800000Y-102987500D01*
X108800000Y-101025000D02*
X110500000Y-101025000D01*
X110512500Y-103025000D02*
X110537500Y-103000000D01*
X108762500Y-103025000D02*
X110512500Y-103025000D01*
X110537500Y-101062500D02*
X110500000Y-101025000D01*
X110537500Y-103000000D02*
X110537500Y-101062500D01*
%TO.N,Net-(C2-Pad1)*%
X112400000Y-101025000D02*
X114125000Y-101025000D01*
X112362500Y-103000000D02*
X114162500Y-103000000D01*
X112400000Y-102962500D02*
X112362500Y-103000000D01*
X112400000Y-101025000D02*
X112400000Y-102962500D01*
X114162500Y-101062500D02*
X114125000Y-101025000D01*
X114162500Y-103000000D02*
X114162500Y-101062500D01*
%TO.N,Net-(C3-Pad1)*%
X116025000Y-101025000D02*
X117725000Y-101025000D01*
X115987500Y-103000000D02*
X117762500Y-103000000D01*
X116025000Y-102962500D02*
X115987500Y-103000000D01*
X116025000Y-101025000D02*
X116025000Y-102962500D01*
X117725000Y-102962500D02*
X117762500Y-103000000D01*
X117725000Y-101025000D02*
X117725000Y-102962500D01*
%TO.N,Net-(C4-Pad1)*%
X119625000Y-101025000D02*
X121350000Y-101025000D01*
X119587500Y-103000000D02*
X121387500Y-103000000D01*
X119625000Y-102962500D02*
X119587500Y-103000000D01*
X119625000Y-101025000D02*
X119625000Y-102962500D01*
X121350000Y-102962500D02*
X121387500Y-103000000D01*
X121350000Y-101025000D02*
X121350000Y-102962500D01*
%TO.N,Net-(C5-Pad1)*%
X123250000Y-102962500D02*
X123212500Y-103000000D01*
X123250000Y-101025000D02*
X123250000Y-102962500D01*
X125125000Y-101025000D02*
X126100000Y-102000000D01*
X123250000Y-101025000D02*
X125125000Y-101025000D01*
X125100000Y-103000000D02*
X126100000Y-102000000D01*
X123212500Y-103000000D02*
X125100000Y-103000000D01*
%TO.N,Net-(R1-Pad2)*%
X102662500Y-102962500D02*
X101700000Y-102000000D01*
X104800000Y-102962500D02*
X102662500Y-102962500D01*
%TD*%
M02*
