%TF.GenerationSoftware,KiCad,Pcbnew,(5.1.9)-1*%
%TF.CreationDate,2021-08-06T11:10:12+02:00*%
%TF.ProjectId,ProbeAttenuationBoard,50726f62-6541-4747-9465-6e756174696f,1*%
%TF.SameCoordinates,Original*%
%TF.FileFunction,Legend,Top*%
%TF.FilePolarity,Positive*%
%FSLAX46Y46*%
G04 Gerber Fmt 4.6, Leading zero omitted, Abs format (unit mm)*
G04 Created by KiCad (PCBNEW (5.1.9)-1) date 2021-08-06 11:10:12*
%MOMM*%
%LPD*%
G01*
G04 APERTURE LIST*
%ADD10C,0.120000*%
G04 APERTURE END LIST*
D10*
%TO.C,R6*%
X122527064Y-103735000D02*
X122072936Y-103735000D01*
X122527064Y-102265000D02*
X122072936Y-102265000D01*
%TO.C,R5*%
X118902064Y-103735000D02*
X118447936Y-103735000D01*
X118902064Y-102265000D02*
X118447936Y-102265000D01*
%TO.C,R4*%
X115302064Y-103735000D02*
X114847936Y-103735000D01*
X115302064Y-102265000D02*
X114847936Y-102265000D01*
%TO.C,R3*%
X111677064Y-103735000D02*
X111222936Y-103735000D01*
X111677064Y-102265000D02*
X111222936Y-102265000D01*
%TO.C,R2*%
X108077064Y-103760000D02*
X107622936Y-103760000D01*
X108077064Y-102290000D02*
X107622936Y-102290000D01*
%TO.C,R1*%
X105535000Y-101822936D02*
X105535000Y-102277064D01*
X104065000Y-101822936D02*
X104065000Y-102277064D01*
%TO.C,C5*%
X122561252Y-101760000D02*
X122038748Y-101760000D01*
X122561252Y-100290000D02*
X122038748Y-100290000D01*
%TO.C,C4*%
X118936252Y-101760000D02*
X118413748Y-101760000D01*
X118936252Y-100290000D02*
X118413748Y-100290000D01*
%TO.C,C3*%
X115336252Y-101760000D02*
X114813748Y-101760000D01*
X115336252Y-100290000D02*
X114813748Y-100290000D01*
%TO.C,C2*%
X111711252Y-101760000D02*
X111188748Y-101760000D01*
X111711252Y-100290000D02*
X111188748Y-100290000D01*
%TO.C,C1*%
X108111252Y-101760000D02*
X107588748Y-101760000D01*
X108111252Y-100290000D02*
X107588748Y-100290000D01*
%TD*%
M02*
